{"title":"Nubiles.Sabrina.Banks.Soapy.Tits.XXX.1080p.MP4","uid":10614791,"size":955364767,"categoryP":"porn","categoryS":"movies","magnet":"?xt=urn:btih:66b93a8f251065b2034fb2fe92cce52a19e985ef&amp;dn=Nubiles.Sabrina.Banks.Soapy.Tits.XXX.1080p.MP4&amp;tr=udp%3A%2F%2Ftracker.openbittorrent.com%3A80&amp;tr=udp%3A%2F%2Fopen.demonii.com%3A1337&amp;tr=udp%3A%2F%2Ftracker.coppersurfer.tk%3A6969&amp;tr=udp%3A%2F%2Fexodus.desync.com%3A6969","seeders":0,"leechers":2,"uploader":"XXXmegathor","files":1,"time":1406090829,"description":"Nubiles.Sabrina.Banks.Soapy.Tits.XXX.1080p\n\nSCREENIES &lt;a href=&quot;\nhttp://xxxtrapics.com/image/MP&quot; rel=&quot;nofollow&quot; target=&quot;_NEW&quot;&gt;\nhttp://xxxtrapics.com/image/MP&lt;/a&gt; \n\n\nDuration : 10mn 50s\nDuration_LastFrame : -14ms\nBit rate mode : Variable\nBit rate : 11.6 Mbps\nWidth : 1 920 pixels\nHeight : 1 080 pixels\nDisplay aspect ratio : 16:9\nFrame rate mode : Constant\nFrame rate : 29.970 fps\nColor space : YUV\nChroma subsampling : 4:2:0\nBit depth : 8 bits\nScan type : Progressive\nBits/(Pixel*Frame) : 0.186\nStream size : 899 MiB (99%)\nWriting library : x264 core 142\nEncoding settings : cabac=1 / ref=2 / deblock=1:-1:-1 / analyse=0x1:0x111 / me=umh / subme=8 / psy=1 / psy_rd=1.00:0.15 / mixed_ref=1 / me_range=16 / chroma_me=1 / trellis=1 / 8x8dct=0 / cqm=0 / deadzone=21,11 / fast_pskip=1 / chroma_qp_offset=-3 / threads=6 / lookahead_threads=1 / sliced_threads=0 / nr=0 / decimate=1 / interlaced=0 / bluray_compat=0 / constrained_intra=0 / bframes=3 / b_pyramid=2 / b_adapt=2 / b_bias=0 / direct=3 / weightb=1 / open_gop=0 / weightp=0 / keyint=250 / keyint_min=25 / scenecut=40 / intra_refresh=0 / rc_lookahead=50 / rc=crf / mbtree=1 / crf=18.0 / qcomp=0.60 / qpmin=0 / qpmax=69 / qpstep=4 / ip_ratio=1.40 / aq=1:1.00\nLanguage : English\n\nAudio\nID : 2\nFormat : AAC\nFormat/Info : Advanced Audio Codec\nFormat profile : LC\nCodec ID : 40\nDuration : 10mn 50s\nBit rate mode : Variable\nBit rate : 151 Kbps\nMaximum bit rate : 196 Kbps\nChannel(s) : 2 channels\nChannel positions : Front: L R\nSampling rate : 44.1 KHz\nCompression mode : Lossy\nStream size : 11.7 MiB (1%)\nLanguage : English\n\n","torrent":{"xt":"urn:btih:66b93a8f251065b2034fb2fe92cce52a19e985ef","amp;dn":"Nubiles.Sabrina.Banks.Soapy.Tits.XXX.1080p.MP4","amp;tr":["udp%3A%2F%2Ftracker.openbittorrent.com%3A80","udp%3A%2F%2Fopen.demonii.com%3A1337","udp%3A%2F%2Ftracker.coppersurfer.tk%3A6969","udp%3A%2F%2Fexodus.desync.com%3A6969"],"infoHash":"66b93a8f251065b2034fb2fe92cce52a19e985ef","infoHashBuffer":{"type":"Buffer","data":[102,185,58,143,37,16,101,178,3,79,178,254,146,204,229,42,25,233,133,239]},"announce":[],"urlList":[]}}